<?xml version="1.0" standalone="no"?>
<!DOCTYPE svg PUBLIC "-//W3C//DTD SVG 20010904//EN"
 "http://www.w3.org/TR/2001/REC-SVG-20010904/DTD/svg10.dtd">
<svg version="1.0" xmlns="http://www.w3.org/2000/svg"
 width="450.000000pt" height="450.000000pt" viewBox="0 0 450.000000 450.000000"
 preserveAspectRatio="xMidYMid meet">

<g transform="translate(0.000000,450.000000) scale(0.100000,-0.100000)"
fill="#000000" stroke="none">
<path d="M2280 3823 c-74 -4 -214 -24 -235 -33 -34 -14 -135 -21 -135 -9 0 5
6 7 13 3 9 -5 9 -4 0 6 -9 10 -24 8 -78 -8 -104 -33 -256 -103 -248 -115 3 -6
1 -7 -5 -3 -11 6 -81 -31 -112 -61 -8 -8 -35 -28 -60 -46 -32 -23 -40 -33 -27
-35 9 -2 17 -8 17 -14 0 -6 -12 -8 -30 -5 -17 4 -35 1 -42 -6 -7 -7 -31 -25
-53 -42 -61 -45 -232 -219 -239 -243 -4 -11 -15 -24 -25 -27 -9 -3 -27 -22
-39 -43 -11 -20 -31 -48 -44 -62 -13 -14 -34 -48 -48 -74 -13 -27 -29 -54 -35
-60 -17 -16 -60 -106 -69 -141 -4 -16 -13 -37 -21 -45 -7 -8 -21 -43 -30 -77
-10 -35 -21 -63 -25 -63 -4 0 -10 -12 -13 -27 -10 -50 -38 -168 -45 -183 -3
-8 -7 -22 -7 -30 -1 -8 -3 -21 -4 -28 0 -8 -6 -10 -14 -6 -9 6 -9 4 -1 -7 12
-16 11 -39 -7 -156 -16 -111 -7 -321 21 -438 84 -364 264 -622 600 -861 219
-156 346 -224 520 -277 126 -38 219 -50 370 -50 265 1 504 59 741 179 381 194
676 504 856 899 57 125 112 308 118 395 1 14 5 32 8 40 3 8 6 22 6 30 1 8 6
56 12 105 23 193 -8 389 -92 580 -53 122 -187 362 -249 447 -53 72 -61 89 -32
67 15 -13 16 -12 3 4 -8 9 -16 15 -19 12 -3 -3 -17 5 -31 17 l-26 23 22 -25
c42 -49 134 -216 172 -315 61 -156 99 -329 102 -462 1 -40 3 -50 8 -31 3 17
10 25 17 20 16 -11 24 -41 13 -48 -6 -3 -8 -18 -4 -33 4 -14 9 -34 11 -44 7
-36 16 -58 21 -53 4 3 13 0 21 -6 12 -10 14 -6 12 22 -3 49 -1 60 9 60 16 0
31 -61 31 -121 0 -61 -15 -81 -23 -31 -3 15 -4 7 -4 -17 1 -25 -3 -46 -8 -47
-11 -3 -67 114 -88 181 l-12 40 -3 -50 c-3 -69 -30 -248 -48 -320 -104 -423
-362 -799 -729 -1062 -93 -67 -212 -133 -238 -133 l-22 0 21 13 c71 41 317
258 396 349 83 96 28 64 -96 -57 -23 -22 -44 -38 -48 -37 -5 1 -8 -2 -8 -8 0
-5 -9 -10 -19 -10 -11 0 -23 -5 -27 -12 -4 -7 -3 -8 4 -4 25 15 10 -3 -15 -20
-20 -13 -25 -13 -18 -3 6 8 -1 3 -14 -11 -13 -14 -20 -18 -16 -10 5 8 -7 0
-25 -18 -18 -18 -39 -31 -46 -28 -8 3 -20 -4 -28 -16 -9 -12 -19 -17 -27 -13
-8 5 -10 4 -5 -3 4 -8 0 -12 -11 -12 -10 0 -51 -16 -90 -35 -40 -19 -76 -36
-80 -36 -5 -1 -17 -6 -28 -12 -11 -6 -24 -12 -30 -12 -5 -1 -23 -7 -40 -15
-16 -7 -38 -12 -47 -11 -10 1 -28 -4 -40 -11 -29 -16 -248 -45 -358 -47 -244
-5 -537 80 -715 207 -286 205 -451 451 -525 782 -76 342 -25 706 146 1041 148
289 417 571 663 695 53 26 65 29 56 15 -6 -11 15 -61 27 -61 21 0 4 -21 -39
-46 -154 -89 -371 -291 -483 -449 -73 -103 -164 -275 -202 -385 -70 -197 -93
-349 -85 -554 9 -250 64 -425 194 -625 76 -116 243 -281 350 -344 212 -126
397 -177 643 -177 226 0 415 46 635 153 161 79 362 233 460 353 25 31 45 51
45 46 0 -6 -5 -14 -10 -17 -7 -4 -7 -12 0 -25 5 -10 10 -31 11 -47 0 -28 0
-28 10 -4 6 15 14 21 24 17 10 -3 15 -1 13 7 -2 7 24 50 57 95 64 88 148 226
187 307 45 92 58 126 49 120 -6 -3 -9 7 -8 24 1 16 6 27 11 23 5 -3 6 3 3 12
-5 13 -3 17 6 13 10 -4 13 2 10 21 -3 20 -2 23 5 13 8 -11 13 -5 21 25 31 119
42 179 45 269 3 55 2 85 0 68 -4 -24 -11 -33 -24 -33 -16 0 -20 9 -23 63 l-3
62 -2 -62 c-3 -103 -22 -74 -22 35 0 53 -5 137 -10 185 -9 73 -8 91 4 103 8 7
22 14 30 14 9 0 16 6 16 13 0 8 4 7 11 -3 15 -23 1 51 -28 145 -52 164 -158
347 -273 469 -137 146 -184 186 -309 268 -14 9 -31 21 -37 27 -6 5 -40 24 -75
42 -35 17 -66 35 -69 39 -3 4 -20 10 -38 13 -18 4 -39 13 -47 21 -16 15 -117
36 -210 42 -143 9 -162 10 -205 7z m-347 -70 c-7 -2 -19 -2 -25 0 -7 3 -2 5
12 5 14 0 19 -2 13 -5z m-93 -22 c0 -5 -9 -7 -20 -4 -11 3 -20 7 -20 9 0 2 9
4 20 4 11 0 20 -4 20 -9z m-80 -21 c0 -10 -63 -40 -83 -40 -6 0 -2 8 9 19 10
10 21 17 24 16 3 -1 14 1 25 6 11 4 21 8 23 8 1 1 2 -3 2 -9z m-105 -60 c-3
-5 -14 -10 -23 -10 -15 0 -15 2 -2 10 20 13 33 13 25 0z m-110 -20 c-3 -6 4
-10 16 -10 18 0 20 -3 11 -12 -8 -8 -15 -8 -26 2 -14 11 -14 30 0 30 3 0 2 -4
-1 -10z m-40 -60 c-3 -5 -13 -10 -21 -10 -8 0 -12 5 -9 10 3 6 13 10 21 10 8
0 12 -4 9 -10z m-60 -40 c-3 -5 -12 -10 -18 -10 -7 0 -6 4 3 10 19 12 23 12
15 0z m-215 -164 c0 -2 -7 -6 -15 -10 -8 -3 -15 -1 -15 4 0 6 7 10 15 10 8 0
15 -2 15 -4z m1488 -71 c63 -19 139 -80 185 -147 107 -157 82 -375 -61 -529
-74 -79 -146 -120 -260 -145 -95 -21 -124 -35 -156 -76 -37 -50 -50 -105 -37
-156 18 -64 44 -76 181 -83 97 -5 123 -10 165 -32 93 -47 161 -127 194 -224
50 -149 8 -323 -105 -437 -100 -102 -221 -152 -348 -144 -167 11 -293 119
-332 283 -21 94 -12 166 37 288 21 53 39 111 39 128 0 82 -57 135 -136 126
-60 -6 -94 -35 -157 -130 -30 -45 -70 -97 -90 -114 -115 -101 -256 -133 -399
-93 -57 16 -144 80 -187 138 -151 201 -51 517 204 643 66 32 75 34 175 34 91
0 111 -3 150 -24 69 -36 126 -88 160 -143 58 -94 164 -103 242 -21 57 59 62
128 18 221 -87 184 -52 373 97 521 78 77 152 116 245 130 70 10 103 7 176 -14z
m-1633 -75 c-3 -5 -11 -10 -16 -10 -6 0 -7 5 -4 10 3 6 11 10 16 10 6 0 7 -4
4 -10z m2484 -1043 c-7 -29 -14 -54 -14 -57 -1 -3 -5 -27 -9 -55 -7 -40 -10
-46 -17 -30 -6 15 -8 16 -8 4 -1 -9 -8 -19 -16 -23 -8 -3 -15 -13 -15 -23 0
-10 -5 -25 -10 -33 -8 -11 -9 -7 -5 15 l6 30 -16 -27 c-9 -16 -18 -28 -20 -28
-10 0 29 86 48 108 11 12 17 22 13 22 -5 0 -3 7 4 15 6 8 9 23 5 35 -4 11 -4
33 0 49 5 23 10 27 30 23 23 -4 25 -2 19 29 -4 28 -3 31 6 16 9 -14 9 -31 -1
-70z m-132 -259 c-3 -8 -6 -5 -6 6 -1 11 2 17 5 13 3 -3 4 -12 1 -19z m-47
-113 c-6 -15 -13 -25 -16 -23 -2 3 1 17 7 32 16 34 23 27 9 -9z m-76 -138
c-25 -42 -51 -80 -57 -84 -7 -4 -4 4 5 17 10 14 34 53 54 88 20 35 38 62 40
59 2 -2 -16 -38 -42 -80z m-88 -135 c-8 -15 -24 -36 -36 -47 -16 -14 -12 -5
11 28 37 53 46 60 25 19z m-629 -778 c-3 -3 -12 -4 -19 -1 -8 3 -5 6 6 6 11 1
17 -2 13 -5z"/>
<path d="M3345 3451 c33 -36 65 -70 72 -78 6 -7 16 -13 21 -13 10 0 -19 30
-105 110 -40 38 -38 35 12 -19z"/>
<path d="M3581 2704 c0 -11 3 -14 6 -6 3 7 2 16 -1 19 -3 4 -6 -2 -5 -13z"/>
<path d="M1284 1100 c2 -14 -1 -35 -5 -48 -7 -17 -5 -24 9 -29 9 -4 26 -15 37
-26 35 -32 195 -107 230 -107 29 0 33 4 39 32 4 21 2 34 -5 37 -32 10 -295
146 -302 155 -4 6 -5 0 -3 -14z"/>
<path d="M1225 1070 c-3 -5 -1 -10 4 -10 6 0 11 5 11 10 0 6 -2 10 -4 10 -3 0
-8 -4 -11 -10z"/>
<path d="M1250 1049 c0 -5 5 -7 10 -4 6 3 10 8 10 11 0 2 -4 4 -10 4 -5 0 -10
-5 -10 -11z"/>
</g>
</svg>
